<svg width="157" height="43" viewBox="0 0 157 43" fill="none" xmlns="http://www.w3.org/2000/svg">
<rect width="156.52" height="43" fill="#0076F0"/>
<path d="M81.9442 19.9168L78.7192 20.2686C78.6279 19.9429 78.4683 19.6367 78.2403 19.35C78.0188 19.0633 77.7191 18.832 77.3412 18.6561C76.9633 18.4802 76.5008 18.3923 75.9535 18.3923C75.2173 18.3923 74.5983 18.5519 74.0967 18.8711C73.6015 19.1904 73.3572 19.6041 73.3637 20.1123C73.3572 20.5488 73.5168 20.9039 73.8426 21.1775C74.1748 21.4511 74.7221 21.6759 75.4844 21.8518L78.0448 22.3991C79.4651 22.7053 80.5206 23.1907 81.2112 23.8552C81.9083 24.5198 82.2601 25.3895 82.2667 26.4645C82.2601 27.4092 81.9833 28.2432 81.436 28.9664C80.8952 29.683 80.1427 30.2433 79.1785 30.6473C78.2142 31.0512 77.1067 31.2532 75.8558 31.2532C74.0185 31.2532 72.5395 30.8688 71.4189 30.1C70.2983 29.3247 69.6305 28.2464 69.4155 26.8652L72.8653 26.5329C73.0217 27.2105 73.3539 27.722 73.8621 28.0673C74.3703 28.4126 75.0316 28.5852 75.846 28.5852C76.6864 28.5852 77.3608 28.4126 77.8689 28.0673C78.3836 27.722 78.641 27.2952 78.641 26.787C78.641 26.357 78.4748 26.002 78.1426 25.7218C77.8168 25.4417 77.3086 25.2267 76.618 25.0768L74.0576 24.5393C72.6177 24.2396 71.5525 23.7347 70.8619 23.0245C70.1713 22.3079 69.8292 21.4023 69.8358 20.3077C69.8292 19.3826 70.0801 18.5812 70.5883 17.9036C71.1029 17.2195 71.8164 16.6918 72.7285 16.3204C73.6471 15.9426 74.7058 15.7536 75.9046 15.7536C77.6637 15.7536 79.0482 16.1283 80.058 16.8775C81.0744 17.6267 81.7031 18.6398 81.9442 19.9168Z" fill="white"/>
<path d="M50.1461 30.96L45.9048 15.9491H49.5109L52.1496 26.5036H52.2864L54.9836 15.9491H58.5507L61.248 26.445H61.3946L63.9941 15.9491H67.61L63.3589 30.96H59.6746L56.86 20.8159H56.6548L53.8402 30.96H50.1461Z" fill="white"/>
<path d="M37.4612 31.2532C35.9562 31.2532 34.6564 30.9404 33.5619 30.315C32.4738 29.683 31.6366 28.7905 31.0503 27.6373C30.4639 26.4776 30.1707 25.1126 30.1707 23.5425C30.1707 21.9984 30.4639 20.6433 31.0503 19.477C31.6431 18.3043 32.4706 17.3922 33.5325 16.7407C34.5945 16.0826 35.8422 15.7536 37.2755 15.7536C38.2006 15.7536 39.0737 15.9035 39.8946 16.2032C40.722 16.4964 41.4517 16.9524 42.0837 17.5714C42.7222 18.1903 43.2238 18.9786 43.5887 19.9364C43.9535 20.8876 44.1359 22.0212 44.1359 23.3373V24.422H31.8321V22.0375H40.7448C40.7383 21.3599 40.5917 20.7573 40.305 20.2295C40.0184 19.6953 39.6177 19.2751 39.103 18.9689C38.5948 18.6626 38.0019 18.5095 37.3244 18.5095C36.6012 18.5095 35.9659 18.6855 35.4187 19.0373C34.8714 19.3826 34.4447 19.8386 34.1384 20.4054C33.8387 20.9658 33.6856 21.5814 33.6791 22.2525V24.3341C33.6791 25.2071 33.8387 25.9564 34.158 26.5818C34.4772 27.2008 34.9235 27.6764 35.4969 28.0086C36.0702 28.3344 36.7412 28.4973 37.51 28.4973C38.0247 28.4973 38.4906 28.4256 38.9075 28.2823C39.3245 28.1324 39.6861 27.9142 39.9923 27.6275C40.2985 27.3408 40.5298 26.9858 40.6862 26.5623L43.9894 26.9336C43.7809 27.8067 43.3834 28.5689 42.7971 29.2204C42.2172 29.8654 41.4745 30.3671 40.5689 30.7254C39.6633 31.0773 38.6274 31.2532 37.4612 31.2532Z" fill="white"/>
<path d="M27.0215 10.9455V30.96H23.7965L14.3659 17.3271H14.1997V30.96H10.574V10.9455H13.8186L23.2395 24.5882H23.4154V10.9455H27.0215Z" fill="white"/>
<rect x="92.88" y="1.72" width="61.92" height="39.56" fill="white"/>
<path d="M144.705 10.9455V30.96H141.079V10.9455H144.705Z" fill="#0076F0"/>
<path d="M123.369 30.96V10.9455H130.874C132.412 10.9455 133.702 11.2321 134.744 11.8055C135.793 12.3788 136.585 13.1671 137.119 14.1705C137.66 15.1673 137.93 16.3009 137.93 17.5714C137.93 18.8549 137.66 19.995 137.119 20.9918C136.578 21.9886 135.78 22.7737 134.725 23.3471C133.669 23.9139 132.369 24.1973 130.825 24.1973H125.851V21.2166H130.337C131.236 21.2166 131.972 21.0602 132.545 20.7475C133.119 20.4348 133.542 20.0048 133.816 19.4575C134.096 18.9102 134.236 18.2815 134.236 17.5714C134.236 16.8612 134.096 16.2358 133.816 15.695C133.542 15.1543 133.115 14.734 132.535 14.4343C131.962 14.1281 131.223 13.975 130.317 13.975H126.994V30.96H123.369Z" fill="#0076F0"/>
<path d="M106.024 30.96H102.154L109.201 10.9455H113.676L120.732 30.96H116.862L111.517 15.05H111.36L106.024 30.96ZM106.151 23.1125H116.706V26.0248H106.151V23.1125Z" fill="#0076F0"/>
</svg>
